<?xml version="1.0" encoding="UTF-8"?> <svg xmlns="http://www.w3.org/2000/svg" width="65" height="65" viewBox="0 0 65 65"><defs><clipPath id="clip-path"><path id="Rectangle_3428" d="M0 0H65V65H0z" class="cls-1" transform="translate(-11674 -13151)"></path></clipPath><style> .cls-1{fill:#3e3e3e} </style></defs><g id="distributor" clip-path="url(#clip-path)" transform="translate(11674 13151)"><g id="_004-global" transform="translate(-11675.882 -13152.859)"><path id="Path_4471" d="M6.063 21.256a.929.929 0 0 1-.83-1.344c.414-.826.874-1.654 1.368-2.458a.929.929 0 0 1 1.579.972c-.464.759-.9 1.538-1.289 2.316a.929.929 0 0 1-.828.514z" class="cls-1"></path><path id="Path_4472" d="M34.354 66.86A32.516 32.516 0 0 1 5.479 49.27 32.081 32.081 0 0 1 1.9 36.03a.929.929 0 0 1 .881-.974.939.939 0 0 1 .973.881 30.646 30.646 0 0 0 31.894 29.039l.518-.028a30.643 30.643 0 0 0-3.1-61.206c-.494.019-.983.055-1.464.093a30.614 30.614 0 0 0-19.427 9.379.929.929 0 1 1-1.344-1.282 32.474 32.474 0 0 1 20.618-9.951c.517-.039 1.03-.077 1.543-.093A32.5 32.5 0 0 1 36.267 66.8l-.534.029c-.457.021-.919.031-1.379.031z" class="cls-1"></path><path id="Path_4473" d="M3.214 30.078a.888.888 0 0 1-.148-.012A.929.929 0 0 1 2.3 29a27.445 27.445 0 0 1 .6-2.823.929.929 0 1 1 1.792.485A25.8 25.8 0 0 0 4.13 29.3a.929.929 0 0 1-.916.778z" class="cls-1"></path><path id="Path_4474" d="M32.327 42.822c-1.874 0-3.578-1.725-4.954-5.033a4.318 4.318 0 0 1 .264-3.724 2.213 2.213 0 0 0-.582-3.044 4.39 4.39 0 0 1-1.331-2.275c-.028-.118-.059-.215-.088-.313A2.353 2.353 0 0 0 23 26.953a11.05 11.05 0 0 1-2.752.15 4.287 4.287 0 0 1-3.548-2.676 10.76 10.76 0 0 1-.317-6.926 8.857 8.857 0 0 1 4.99-5.719 7.7 7.7 0 0 1 7.627.963 3.4 3.4 0 0 0 1.217.585 5.621 5.621 0 0 0 3.6-.193 3.151 3.151 0 0 0 1.837-3.011 2.638 2.638 0 0 0-.535-1.486 3.316 3.316 0 0 0-2.339-1.151 3.732 3.732 0 0 1-3.025-1.624l-.109-.2v-.23a4.873 4.873 0 0 1 1.161-3.1l1.467 1.138a3.343 3.343 0 0 0-.757 1.627 2.48 2.48 0 0 0 1.449.54 5.05 5.05 0 0 1 3.64 1.88 4.468 4.468 0 0 1 .908 2.512 5.022 5.022 0 0 1-2.936 4.8 7.417 7.417 0 0 1-4.774.306 5.218 5.218 0 0 1-1.9-.9 5.787 5.787 0 0 0-5.82-.749 6.982 6.982 0 0 0-3.922 4.52 8.792 8.792 0 0 0 .259 5.738 2.409 2.409 0 0 0 1.993 1.505 9.193 9.193 0 0 0 2.271-.131 4.224 4.224 0 0 1 4.715 2.737c.053.171.093.311.128.451a2.591 2.591 0 0 0 .75 1.316 4.086 4.086 0 0 1 .988 5.328 2.437 2.437 0 0 0-.18 2.121c1.069 2.569 2.357 4.008 3.408 3.879.4-.124 3.388-1.13 3.49-3.5a3.7 3.7 0 0 1 3.164-3.818 1.492 1.492 0 0 0 .708-.593.564.564 0 0 0 0-.425 4.415 4.415 0 0 1 1.257-5.776l2.613-2.441a.842.842 0 0 0 .254-.4 2.371 2.371 0 0 0-.689-1.645h-.974a2.746 2.746 0 0 1-2.646-1.995A3.753 3.753 0 0 0 39 19.033a2.777 2.777 0 0 1-.386-3.015 2.709 2.709 0 0 1 2.471-1.537c2.136-.06 4.736-.623 5.1-1.334l.1-.2.186-.132c.033-.023 3.284-2.365 4.2-5.212l1.764.572c-.994 3.07-3.993 5.479-4.736 6.036-1.268 1.885-5.65 2.1-6.543 2.128h-.1a.836.836 0 0 0-.777.477.944.944 0 0 0 .131 1.021 5.614 5.614 0 0 1 1.036 2 .9.9 0 0 0 .864.661h1.059a2.151 2.151 0 0 1 1.656 1.021 4.038 4.038 0 0 1 .743 2.949 2.667 2.667 0 0 1-.787 1.287l-2.643 2.467c-2.015 1.7-.921 3.4-.873 3.467l.093.186a2.461 2.461 0 0 1-.028 1.95 3.4 3.4 0 0 1-1.84 1.591l-.186.045a1.879 1.879 0 0 0-1.671 2c-.167 3.965-4.706 5.25-4.9 5.3l-.093.02a3.132 3.132 0 0 1-.513.041z" class="cls-1"></path><path id="Path_4475" d="M37.144 65.931h-1.857c0-4.746 3.982-7.758 4.667-8.24 1.579-1.585 5.7-.811 6.949-.531l.162.049a.813.813 0 0 0 .809-.286.958.958 0 0 0 .126-1.037 5.431 5.431 0 0 1-.5-2.192.9.9 0 0 0-.679-.85l-1.021-.258a2.147 2.147 0 0 1-1.355-1.4 4.032 4.032 0 0 1 .014-3.049 2.581 2.581 0 0 1 1.079-1.051l3.162-1.73c2.376-1.151 1.734-3.058 1.7-3.139l-.046-.2a2.459 2.459 0 0 1 .511-1.886 3.4 3.4 0 0 1 2.176-1.087l.1-.008.1.011a1.883 1.883 0 0 0 2.118-1.514c1.138-3.807 5.856-3.922 6.056-3.925 2.829.23 4.6 3.831 4.938 6.193l-1.84.262c-.252-1.772-1.584-4.416-3.114-4.6-.415.02-3.561.249-4.245 2.53a3.7 3.7 0 0 1-4.011 2.907 1.5 1.5 0 0 0-.836.4.574.574 0 0 0-.111.417 4.407 4.407 0 0 1-2.647 5.287l-3.136 1.714a.78.78 0 0 0-.331.308 2.331 2.331 0 0 0 .249 1.777l.943.24a2.749 2.749 0 0 1 2.073 2.586 3.644 3.644 0 0 0 .317 1.447 2.794 2.794 0 0 1-.371 3.031 2.656 2.656 0 0 1-2.77.879l-.113-.035c-2.043-.445-4.638-.529-5.159.06l-.186.159c-.027.03-3.921 2.687-3.921 6.761z" class="cls-1"></path><path id="Path_4476" d="M14.838 60.1a.918.918 0 0 1-.363-.075.929.929 0 0 1-.49-1.217l.186-.437a4.95 4.95 0 0 1 6.507-2.571 1.435 1.435 0 0 0 1.857-.726 1.45 1.45 0 0 0 .118-.566 1.4 1.4 0 0 0-.851-1.292 2.7 2.7 0 0 1-1.615-2.478 2.661 2.661 0 0 1 .227-1.079l1.327-3.059a2 2 0 0 0 .036-1.549 2.036 2.036 0 0 0-3.763-.074 2.3 2.3 0 0 1-2.979 1.179l-2.377-1.034a1.452 1.452 0 0 0-1.916.751 7.15 7.15 0 0 1-2.075 2.718 6.56 6.56 0 0 1-2.074 1.14.929.929 0 1 1-.579-1.764 4.721 4.721 0 0 0 1.486-.829 5.276 5.276 0 0 0 1.54-2.008 3.311 3.311 0 0 1 4.36-1.711l2.366 1.03a.42.42 0 0 0 .545-.222 3.89 3.89 0 1 1 7.131 3.11L22.12 50.4a.836.836 0 0 0-.072.338.853.853 0 0 0 .5.774 3.268 3.268 0 0 1-2.6 6 3.092 3.092 0 0 0-4.066 1.6l-.186.431a.929.929 0 0 1-.858.557z" class="cls-1"></path></g></g></svg> 