<?xml version="1.0" encoding="UTF-8"?> <svg xmlns="http://www.w3.org/2000/svg" width="65" height="65" viewBox="0 0 65 65"><defs><clipPath id="clip-path"><path id="Rectangle_3432" d="M0 0H65V65H0z" class="cls-1" transform="translate(-11371 -13151)"></path></clipPath><style> .cls-1{fill:#3e3e3e} </style></defs><g id="individualne-jednanie" clip-path="url(#clip-path)" transform="translate(11371 13151)"><g id="_002-team" transform="translate(-11371 -13151)"><g id="Group_11"><g id="Group_10"><path id="Path_4446" d="M57.347 30.121C55.135 29.015 50.989 29 50.813 29a.952.952 0 0 0 0 1.9c1.07 0 4.177.165 5.683.918a.952.952 0 0 0 .852-1.7z" class="cls-1"></path></g></g><g id="Group_13"><g id="Group_12"><path id="Path_4447" d="M62.094 43.677l-3.932-1.124a.4.4 0 0 1-.288-.382v-1.312a7.156 7.156 0 0 0 .91-.747 7 7 0 0 0 2.144-5.067v-1.811l.38-.76a6.074 6.074 0 0 0 .638-2.7v-4.91a.952.952 0 0 0-.952-.952h-9.163a6.049 6.049 0 0 0-6.042 6.042v.057a5.05 5.05 0 0 0 .53 2.247l.488.975v1.555a7.429 7.429 0 0 0 3.054 6.012v1.376c0 .212 0 .3-.786.525l-1.919.548-5.551-2.018a.951.951 0 0 0-.259-.729l-1.774-1.863v-3.134c.188-.155.372-.313.551-.481a11.175 11.175 0 0 0 3.522-8.124v-2.5a11.006 11.006 0 0 0 1.018-4.628V9.593a.952.952 0 0 0-.952-.952H29.458a9.107 9.107 0 0 0-9.1 9.1v2.036a11.006 11.006 0 0 0 1.021 4.623v2.149a11.634 11.634 0 0 0 4.072 8.88v3.2L23.678 40.5a.951.951 0 0 0-.259.729l-5.858 2.13a4.993 4.993 0 0 0-1.177.617l-.92-.46a7.272 7.272 0 0 0 3.647-2.952.952.952 0 0 0 0-.852c-.686-1.373-.77-3.889-.836-5.911-.022-.673-.043-1.309-.084-1.875a8.282 8.282 0 0 0-8.076-8.011 8.282 8.282 0 0 0-8.076 8.011c-.04.566-.061 1.2-.084 1.875-.067 2.022-.15 4.538-.836 5.911a.952.952 0 0 0 0 .852 7.271 7.271 0 0 0 3.651 2.95l-2.555 1.274A3.986 3.986 0 0 0 0 48.372v7.034a.952.952 0 0 0 1.9 0v-7.034a2.091 2.091 0 0 1 1.162-1.88L6.248 44.9l1.107 1.052a4 4 0 0 0 5.52 0l1.106-1.052 1.037.519a5.014 5.014 0 0 0-.766 2.658v7.328a.952.952 0 1 0 1.9 0v-7.327a3.13 3.13 0 0 1 2.054-2.932l6.181-2.246 2.571 3.857a1.963 1.963 0 0 0 1.445.868q.1.01.2.01a1.962 1.962 0 0 0 1.391-.577l1.569-1.569v9.918a.952.952 0 1 0 1.9 0v-9.919l1.569 1.569a1.962 1.962 0 0 0 1.391.577q.1 0 .2-.01a1.963 1.963 0 0 0 1.445-.868l2.569-3.856 6.176 2.246a3.13 3.13 0 0 1 2.054 2.932v7.328a.952.952 0 0 0 1.9 0v-7.328a5.033 5.033 0 0 0-1.408-3.484l.235-.067a5.222 5.222 0 0 0 .886-.32l2.431 2.431v8.768a.952.952 0 0 0 1.9 0v-8.768l2.414-2.414a2.265 2.265 0 0 0 .405.161l3.932 1.124A2.111 2.111 0 0 1 63.1 47.53v7.877a.952.952 0 0 0 1.9 0V47.53a4.024 4.024 0 0 0-2.906-3.853zM6.108 42a6.845 6.845 0 0 1-3.056-1.962 10.5 10.5 0 0 0 .543-2.28 7.1 7.1 0 0 0 2.513 3.1zm5.455 2.577a2.1 2.1 0 0 1-2.9 0l-.885-.841a1.97 1.97 0 0 0 .232-.93v-1.02a7.08 7.08 0 0 0 4.2 0V42.8a1.97 1.97 0 0 0 .232.93zM10.115 40.2a5.162 5.162 0 0 1-5.156-5.156.946.946 0 0 0-1.108-.938c0-.082.005-.164.008-.245.021-.655.042-1.273.079-1.8a7.069 7.069 0 0 1 1.925-4.439 5.916 5.916 0 0 1 8.5 0 7.069 7.069 0 0 1 1.925 4.439c.038.53.058 1.149.08 1.8l.006.17a8.555 8.555 0 0 0-4.7-3.436 11.95 11.95 0 0 0-3.622-.574.952.952 0 0 0-.659.291l-1.717 1.781a.952.952 0 0 0 1.371 1.322l1.429-1.482c1.231.06 5.192.521 6.732 3.913a5.144 5.144 0 0 1-5.093 4.354zm4.006 1.8v-1.137a7.043 7.043 0 0 0 2.514-3.1 10.482 10.482 0 0 0 .542 2.275A6.878 6.878 0 0 1 14.121 42zm9.163-15.447v-2.364a.952.952 0 0 0-.095-.414 9.133 9.133 0 0 1-.923-4v-2.037a7.2 7.2 0 0 1 7.192-7.192h13.3v9.228a9.133 9.133 0 0 1-.923 4 .952.952 0 0 0-.095.414V26.9a9.141 9.141 0 0 1-2.919 6.734 9.475 9.475 0 0 1-.731.619l-.016.012a9.155 9.155 0 0 1-6.174 1.844 9.431 9.431 0 0 1-8.616-9.557zm5.361 19.157a.06.06 0 0 1-.053.019.061.061 0 0 1-.048-.029l-2.961-4.442.953-1 4.492 3.071zm3.867-3.674l-5.156-3.524v-1.778a10.721 10.721 0 0 0 4.417 1.275q.376.024.749.024a11.029 11.029 0 0 0 5.146-1.261v1.739zm3.969 3.664a.061.061 0 0 1-.048.029.059.059 0 0 1-.053-.019L34 43.328l4.492-3.071.953 1zm17.386-.8l-2.161-2.161a2.612 2.612 0 0 0 .059-.566v-.4a6.676 6.676 0 0 0 1.886.333h.219a7.073 7.073 0 0 0 2.1-.318v.383a2.276 2.276 0 0 0 .069.555zm3.591-6.151a5.117 5.117 0 0 1-3.75 1.453 5.33 5.33 0 0 1-5-5.41v-1.78a.951.951 0 0 0-.1-.426l-.588-1.176a3.136 3.136 0 0 1-.329-1.4v-.057a4.143 4.143 0 0 1 4.138-4.138h8.21v3.955a4.16 4.16 0 0 1-.437 1.851l-.481.961a.952.952 0 0 0-.1.426v2.036a5.116 5.116 0 0 1-1.563 3.702z" class="cls-1"></path></g></g><g id="Group_15"><g id="Group_14"><path id="Path_4448" d="M59.976 48.346a.952.952 0 0 0-.952.952v6.108a.952.952 0 0 0 1.9 0V49.3a.952.952 0 0 0-.948-.954z" class="cls-1"></path></g></g><g id="Group_17"><g id="Group_16"><path id="Path_4449" d="M5.024 49.6a.952.952 0 0 0-.952.952v4.85a.952.952 0 0 0 1.9 0v-4.85a.952.952 0 0 0-.948-.952z" class="cls-1"></path></g></g><g id="Group_19"><g id="Group_18"><path id="Path_4450" d="M40.312 20.119c-3.6-3.6-11.136-2.913-14.208-2.45a1.955 1.955 0 0 0-1.67 1.947v2.194a.952.952 0 0 0 1.9 0v-2.193a.063.063 0 0 1 .05-.064 30.081 30.081 0 0 1 6.186-.3c2.969.2 5.12.943 6.392 2.215a.952.952 0 1 0 1.346-1.346z" class="cls-1"></path></g></g><g id="Group_21"><g id="Group_20"><path id="Path_4451" d="M21.313 50.382a.952.952 0 0 0-.952.952v4.072a.952.952 0 0 0 1.9 0v-4.072a.952.952 0 0 0-.948-.952z" class="cls-1"></path></g></g><g id="Group_23"><g id="Group_22"><path id="Path_4452" d="M43.711 50.382a.952.952 0 0 0-.952.952v4.072a.952.952 0 0 0 1.9 0v-4.072a.952.952 0 0 0-.948-.952z" class="cls-1"></path></g></g></g></g></svg> 