<?xml version="1.0" encoding="UTF-8"?> <svg xmlns="http://www.w3.org/2000/svg" width="65" height="65" viewBox="0 0 65 65"><defs><clipPath id="clip-path"><path id="Rectangle_3430" d="M0 0H65V65H0z" class="cls-1" transform="translate(-11529 -13151)"></path></clipPath><style> .cls-1{fill:#3e3e3e} </style></defs><g id="skusenosti" clip-path="url(#clip-path)" transform="translate(11529 13151)"><g id="_003-wall-clock" transform="translate(-11529 -13151)"><g id="Group_25"><g id="Group_24"><path id="Path_4453" d="M1.066 32.486H1.1a1.083 1.083 0 0 0 1.083-1.046A30.333 30.333 0 0 1 51.266 8.668H45.5a1.083 1.083 0 1 0 0 2.167h8.682a1.093 1.093 0 0 0 .249-.05 1.163 1.163 0 0 0 .164-.036c.03-.013.053-.04.082-.056a1.036 1.036 0 0 0 .264-.185l.011-.008a1.038 1.038 0 0 0 .075-.118 1.044 1.044 0 0 0 .142-.226 1.031 1.031 0 0 0 .054-.268.915.915 0 0 0 .027-.136V1.085a1.083 1.083 0 0 0-2.167 0v6.274A32.491 32.491 0 0 0 .021 31.367a1.083 1.083 0 0 0 1.045 1.119z" class="cls-1"></path><path id="Path_4454" d="M9.837 52.66a1.086 1.086 0 0 0-1.625 1.44 33 33 0 0 0 2.361 2.392 1.083 1.083 0 0 0 1.461-1.6 30.571 30.571 0 0 1-2.197-2.232z" class="cls-1"></path><path id="Path_4455" d="M22.765 61.238a30.2 30.2 0 0 1-2.913-1.158 1.083 1.083 0 0 0-.962 1.942l.056.026a31.99 31.99 0 0 0 3.124 1.244 1.084 1.084 0 1 0 .694-2.053z" class="cls-1"></path><path id="Path_4456" d="M17.074 58.624a31.088 31.088 0 0 1-2.615-1.733 1.083 1.083 0 1 0-1.342 1.7l.054.04a32.861 32.861 0 0 0 2.8 1.858 1.084 1.084 0 0 0 1.1-1.865z" class="cls-1"></path><path id="Path_4457" d="M7.875 50.215a30.743 30.743 0 0 1-1.7-2.636A1.085 1.085 0 1 0 4.3 48.663a32.782 32.782 0 0 0 1.82 2.818 1.083 1.083 0 0 0 1.758-1.265z" class="cls-1"></path><path id="Path_4458" d="M4.853 45.23a1.083 1.083 0 0 0-.093-.438v-.008a30.252 30.252 0 0 1-1.123-2.924 1.083 1.083 0 1 0-2.091.569q.014.05.032.1a32.563 32.563 0 0 0 1.2 3.142 1.084 1.084 0 0 0 2.074-.439z" class="cls-1"></path><path id="Path_4459" d="M1.993 40.112a1.083 1.083 0 0 0 .834-1.284 30.7 30.7 0 0 1-.49-3.1 1.084 1.084 0 1 0-2.156.229 32.7 32.7 0 0 0 .526 3.317 1.083 1.083 0 0 0 1.286.838z" class="cls-1"></path><path id="Path_4460" d="M63.268 39.006a1.083 1.083 0 0 0-1.312.791 30.358 30.358 0 0 1-.909 3 1.084 1.084 0 1 0 2.039.734 32.566 32.566 0 0 0 .975-3.215 1.083 1.083 0 0 0-.793-1.31z" class="cls-1"></path><path id="Path_4461" d="M28.872 62.617a30.353 30.353 0 0 1-3.09-.531 1.083 1.083 0 0 0-.478 2.114 32.552 32.552 0 0 0 3.312.569 1.045 1.045 0 0 0 .13.008 1.083 1.083 0 0 0 .126-2.159z" class="cls-1"></path><path id="Path_4462" d="M61.27 45.185a1.084 1.084 0 0 0-1.446.5 30.151 30.151 0 0 1-1.51 2.748 1.083 1.083 0 0 0 1.842 1.141 32.453 32.453 0 0 0 1.617-2.946 1.083 1.083 0 0 0-.503-1.443z" class="cls-1"></path><path id="Path_4463" d="M58.07 50.819a1.083 1.083 0 0 0-1.522.174l-.019.025a30.356 30.356 0 0 1-2.043 2.382 1.084 1.084 0 0 0 1.571 1.494 33.141 33.141 0 0 0 2.186-2.551 1.083 1.083 0 0 0-.173-1.524z" class="cls-1"></path><path id="Path_4464" d="M63.935 32.552a1.067 1.067 0 0 0-1.12 1.011v.033a30.358 30.358 0 0 1-.272 3.124 1.083 1.083 0 0 0 .923 1.221 1.034 1.034 0 0 0 .152.011 1.083 1.083 0 0 0 1.071-.934 32.8 32.8 0 0 0 .291-3.346 1.083 1.083 0 0 0-1.045-1.12z" class="cls-1"></path><path id="Path_4465" d="M52.217 55.554a30.676 30.676 0 0 1-2.492 1.915 1.086 1.086 0 1 0 1.235 1.786 33.227 33.227 0 0 0 2.665-2.055 1.083 1.083 0 0 0-1.408-1.647z" class="cls-1"></path><path id="Path_4466" d="M41.287 61.542a30.21 30.21 0 0 1-3.044.747 1.083 1.083 0 0 0 .2 2.147 1.105 1.105 0 0 0 .2-.018 32.077 32.077 0 0 0 3.263-.8 1.083 1.083 0 0 0-.626-2.073z" class="cls-1"></path><path id="Path_4467" d="M35.192 62.716l-.059.005h.005c-.867.074-1.754.108-2.638.108H32a1.121 1.121 0 0 0-1.1 1.071 1.083 1.083 0 0 0 1.065 1.1h.535c.947 0 1.9-.042 2.817-.121a1.083 1.083 0 1 0-.125-2.163z" class="cls-1"></path><path id="Path_4468" d="M47.059 59.117a30.577 30.577 0 0 1-2.823 1.363 1.083 1.083 0 0 0 .814 2.008l.024-.01a32.614 32.614 0 0 0 3.025-1.46 1.083 1.083 0 0 0-1.041-1.9z" class="cls-1"></path><path id="Path_4469" d="M32.5 9.751A22.749 22.749 0 1 0 55.25 32.5 22.749 22.749 0 0 0 32.5 9.751zm17.333 23.833h3.195a20.575 20.575 0 0 1-19.444 19.444v-3.194a1.083 1.083 0 0 0-2.167 0v3.195a20.575 20.575 0 0 1-19.444-19.445h3.195a1.083 1.083 0 1 0 0-2.167h-3.195a20.575 20.575 0 0 1 19.444-19.444v3.195a1.083 1.083 0 0 0 2.167 0v-3.195a20.575 20.575 0 0 1 19.444 19.444h-3.195a1.083 1.083 0 0 0 0 2.167z" class="cls-1"></path><path id="Path_4470" d="M33.584 29.45V19.5a1.083 1.083 0 0 0-2.167 0v9.95a3.25 3.25 0 0 0-1.967 1.967h-5.616a1.083 1.083 0 1 0 0 2.167h5.616a3.242 3.242 0 1 0 4.134-4.134zM32.5 33.584a1.083 1.083 0 1 1 1.084-1.084 1.083 1.083 0 0 1-1.084 1.084z" class="cls-1"></path></g></g></g></g></svg> 